<svg xmlns="https://www.w3.org/2000/svg" xmlns:xlink="https://www.w3.org/1999/xlink" width="500" zoomAndPan="magnify" viewBox="0 0 375 374.999991" height="500" preserveAspectRatio="xMidYMid meet" version="1.0"><defs><g/><clipPath id="3462ef093d"><path d="M 41 158 L 74 158 L 74 223.003906 L 41 223.003906 Z M 41 158 " clip-rule="nonzero"/></clipPath><clipPath id="1e70c028a6"><path d="M 37.5 113.503906 L 119 113.503906 L 119 223.003906 L 37.5 223.003906 Z M 37.5 113.503906 " clip-rule="nonzero"/></clipPath></defs><g fill="#ffa500" fill-opacity="1"><g transform="translate(124.07573, 223.478657)"><g><path d="M 11.507812 -0.359375 L 11.507812 0 L 29.144531 0 L 29.144531 -0.359375 C 26.238281 -0.359375 24.449219 -1.992188 24.449219 -4.617188 L 24.449219 -15.410156 L 32.253906 -29.664062 C 33.566406 -32.054688 35.675781 -33.804688 38.703125 -33.925781 L 38.703125 -34.28125 L 29.265625 -34.28125 L 29.265625 -33.925781 C 32.292969 -33.84375 33.207031 -32.171875 31.855469 -29.703125 L 24.25 -15.847656 L 16.246094 -29.703125 C 14.8125 -32.210938 15.25 -33.84375 18.15625 -33.925781 L 18.15625 -34.28125 L 1.992188 -34.28125 L 1.992188 -33.925781 C 4.539062 -33.84375 6.609375 -32.371094 8.164062 -29.703125 L 16.207031 -15.648438 L 16.207031 -4.617188 C 16.207031 -1.992188 14.375 -0.359375 11.507812 -0.359375 Z M 11.507812 -0.359375 "/></g></g></g><g fill="#ffa500" fill-opacity="1"><g transform="translate(164.919428, 223.478657)"><g><path d="M 1.992188 -0.359375 L 1.992188 0 L 11.386719 0 L 11.386719 -0.359375 L 11.269531 -0.359375 C 10.589844 -0.398438 7.167969 -0.796875 10.191406 -7.445312 L 11.507812 -10.3125 L 24.726562 -10.3125 L 27.355469 -4.539062 C 29.105469 -0.714844 26.199219 -0.398438 25.402344 -0.359375 L 25.203125 -0.359375 L 25.203125 0 L 41.371094 0 L 41.371094 -0.359375 L 41.171875 -0.359375 C 40.375 -0.398438 37.308594 -0.757812 35.597656 -4.539062 L 22.019531 -34.324219 L 17.917969 -25.246094 L 9.796875 -7.445312 C 7.128906 -1.511719 4.023438 -0.519531 2.667969 -0.359375 Z M 24.566406 -10.671875 L 11.667969 -10.671875 L 18.117188 -24.804688 Z M 24.566406 -10.671875 "/></g></g></g><g fill="#ffa500" fill-opacity="1"><g transform="translate(208.430308, 223.478657)"><g><path d="M 7.484375 -28.550781 L 32.609375 0 L 33.007812 0 L 33.007812 -29.902344 C 33.128906 -34.164062 37.546875 -33.925781 37.546875 -33.925781 L 37.546875 -34.324219 L 28.109375 -34.324219 L 28.109375 -33.964844 C 28.109375 -33.925781 32.53125 -34.164062 32.648438 -29.902344 L 32.648438 -12.265625 L 13.179688 -34.324219 L 1.992188 -34.324219 L 1.992188 -33.925781 C 4.816406 -33.925781 6.410156 -32.492188 6.492188 -29.105469 L 6.492188 -4.378906 C 6.410156 -0.714844 3.066406 -0.398438 2.191406 -0.359375 L 1.992188 -0.359375 L 1.992188 0 L 11.386719 0 L 11.386719 -0.359375 L 11.1875 -0.359375 C 10.273438 -0.398438 6.96875 -0.714844 6.847656 -4.378906 L 6.847656 -29.226562 Z M 7.484375 -28.550781 "/></g></g></g><g fill="#ffa500" fill-opacity="1"><g transform="translate(248.11956, 223.478657)"><g><path d="M 2.03125 0 L 2.390625 0 L 2.390625 -0.0390625 C 2.390625 -1.792969 2.707031 -3.027344 8.082031 -0.957031 C 13.140625 0.957031 20.308594 0.476562 23.691406 -2.90625 C 25.285156 -4.5 26.480469 -7.367188 26.480469 -9.675781 C 26.480469 -16.683594 20.863281 -17.996094 14.335938 -22.019531 C 10.511719 -24.367188 8.679688 -26.238281 8.679688 -28.949219 C 8.679688 -31.933594 10.152344 -34.242188 14.8125 -34.242188 C 16.644531 -34.242188 18.355469 -33.765625 19.75 -32.96875 C 23.332031 -30.660156 23.53125 -24.050781 23.53125 -24.050781 L 23.890625 -24.050781 L 23.890625 -33.488281 L 23.53125 -33.488281 L 23.53125 -33.328125 C 23.371094 -31.8125 20.226562 -33.128906 18.875 -33.804688 C 17.640625 -34.402344 16.246094 -34.601562 14.8125 -34.601562 C 10.035156 -34.601562 5.414062 -32.011719 3.582031 -27.871094 C 1.554688 -23.332031 3.464844 -20.507812 9.4375 -16.046875 C 13.777344 -12.820312 22.058594 -10.152344 21.898438 -5.695312 C 21.78125 -2.707031 19.628906 -0.160156 13.855469 -0.160156 C 8.003906 -0.160156 2.390625 -5.335938 2.390625 -10.472656 L 2.390625 -11.386719 L 2.03125 -11.386719 Z M 2.03125 0 "/></g></g></g><g fill="#ffbd59" fill-opacity="1"><g transform="translate(96.549659, 249.136146)"><g><path d="M 8.15625 -10.125 C 7.8125 -9.257812 7.53125 -8.296875 7.3125 -7.234375 L 7.03125 -7.234375 C 7.09375 -7.503906 7.125 -7.773438 7.125 -8.046875 C 7.125 -8.597656 6.957031 -9.050781 6.625 -9.40625 C 6.289062 -9.769531 5.785156 -9.953125 5.109375 -9.953125 C 4.515625 -9.953125 4.035156 -9.800781 3.671875 -9.5 C 3.304688 -9.195312 3.125 -8.75 3.125 -8.15625 C 3.125 -7.6875 3.265625 -7.257812 3.546875 -6.875 C 3.835938 -6.488281 4.273438 -6.03125 4.859375 -5.5 C 5.265625 -5.132812 5.585938 -4.816406 5.828125 -4.546875 C 6.078125 -4.273438 6.285156 -3.972656 6.453125 -3.640625 C 6.617188 -3.304688 6.703125 -2.953125 6.703125 -2.578125 C 6.703125 -1.960938 6.523438 -1.441406 6.171875 -1.015625 C 5.816406 -0.597656 5.363281 -0.289062 4.8125 -0.09375 C 4.269531 0.101562 3.707031 0.203125 3.125 0.203125 C 2.625 0.203125 2.222656 0.140625 1.921875 0.015625 C 1.628906 -0.109375 1.363281 -0.265625 1.125 -0.453125 C 0.9375 -0.597656 0.765625 -0.671875 0.609375 -0.671875 C 0.492188 -0.671875 0.398438 -0.613281 0.328125 -0.5 C 0.253906 -0.382812 0.15625 -0.1875 0.03125 0.09375 L -0.25 0.09375 C -0.101562 -0.257812 0.0390625 -0.6875 0.1875 -1.1875 C 0.332031 -1.695312 0.503906 -2.398438 0.703125 -3.296875 L 0.984375 -3.296875 C 0.898438 -2.859375 0.859375 -2.507812 0.859375 -2.25 C 0.859375 -1.5625 1.046875 -1.023438 1.421875 -0.640625 C 1.804688 -0.265625 2.390625 -0.078125 3.171875 -0.078125 C 3.816406 -0.078125 4.320312 -0.222656 4.6875 -0.515625 C 5.0625 -0.816406 5.25 -1.265625 5.25 -1.859375 C 5.25 -2.210938 5.175781 -2.539062 5.03125 -2.84375 C 4.894531 -3.144531 4.722656 -3.410156 4.515625 -3.640625 C 4.316406 -3.867188 4.039062 -4.160156 3.6875 -4.515625 C 3.300781 -4.867188 3 -5.171875 2.78125 -5.421875 C 2.5625 -5.679688 2.375 -5.984375 2.21875 -6.328125 C 2.0625 -6.671875 1.984375 -7.046875 1.984375 -7.453125 C 1.984375 -8.046875 2.128906 -8.546875 2.421875 -8.953125 C 2.722656 -9.367188 3.109375 -9.679688 3.578125 -9.890625 C 4.054688 -10.109375 4.5625 -10.21875 5.09375 -10.21875 C 5.476562 -10.21875 5.8125 -10.171875 6.09375 -10.078125 C 6.382812 -9.984375 6.664062 -9.832031 6.9375 -9.625 C 7.164062 -9.457031 7.320312 -9.375 7.40625 -9.375 C 7.476562 -9.375 7.550781 -9.429688 7.625 -9.546875 C 7.695312 -9.660156 7.78125 -9.851562 7.875 -10.125 Z M 8.15625 -10.125 "/></g></g></g><g fill="#ffbd59" fill-opacity="1"><g transform="translate(105.095313, 249.136146)"><g><path d="M 1.71875 -1.203125 C 1.6875 -1.085938 1.671875 -0.984375 1.671875 -0.890625 C 1.671875 -0.703125 1.726562 -0.5625 1.84375 -0.46875 C 1.957031 -0.375 2.101562 -0.328125 2.28125 -0.328125 C 2.519531 -0.328125 2.738281 -0.425781 2.9375 -0.625 C 3.132812 -0.832031 3.335938 -1.203125 3.546875 -1.734375 L 3.734375 -2.296875 L 4 -2.296875 L 3.703125 -1.40625 C 3.503906 -0.820312 3.25 -0.40625 2.9375 -0.15625 C 2.625 0.0820312 2.234375 0.203125 1.765625 0.203125 C 1.335938 0.203125 1.019531 0.0976562 0.8125 -0.109375 C 0.613281 -0.316406 0.515625 -0.609375 0.515625 -0.984375 C 0.515625 -1.222656 0.554688 -1.488281 0.640625 -1.78125 L 2.140625 -7 L 0.859375 -7 L 0.9375 -7.28125 L 2.203125 -7.28125 L 2.828125 -9.421875 C 3.335938 -9.441406 3.765625 -9.507812 4.109375 -9.625 L 3.4375 -7.28125 L 5.3125 -7.28125 L 5.265625 -7 L 3.359375 -7 Z M 1.71875 -1.203125 "/></g></g></g><g fill="#ffbd59" fill-opacity="1"><g transform="translate(110.556767, 249.136146)"><g><path d="M 0.296875 -2.03125 C 0.296875 -2.769531 0.457031 -3.566406 0.78125 -4.421875 C 1.113281 -5.273438 1.59375 -5.992188 2.21875 -6.578125 C 2.84375 -7.171875 3.566406 -7.46875 4.390625 -7.46875 C 4.992188 -7.46875 5.46875 -7.28125 5.8125 -6.90625 C 6.15625 -6.539062 6.328125 -5.988281 6.328125 -5.25 C 6.328125 -4.507812 6.160156 -3.710938 5.828125 -2.859375 C 5.503906 -2.003906 5.03125 -1.28125 4.40625 -0.6875 C 3.78125 -0.09375 3.054688 0.203125 2.234375 0.203125 C 1.628906 0.203125 1.15625 0.015625 0.8125 -0.359375 C 0.46875 -0.734375 0.296875 -1.289062 0.296875 -2.03125 Z M 4.296875 -7.1875 C 3.816406 -7.1875 3.363281 -6.878906 2.9375 -6.265625 C 2.507812 -5.648438 2.164062 -4.882812 1.90625 -3.96875 C 1.644531 -3.050781 1.515625 -2.164062 1.515625 -1.3125 C 1.515625 -0.882812 1.578125 -0.570312 1.703125 -0.375 C 1.835938 -0.175781 2.046875 -0.078125 2.328125 -0.078125 C 2.804688 -0.078125 3.257812 -0.382812 3.6875 -1 C 4.113281 -1.613281 4.457031 -2.378906 4.71875 -3.296875 C 4.976562 -4.222656 5.109375 -5.109375 5.109375 -5.953125 C 5.109375 -6.378906 5.039062 -6.691406 4.90625 -6.890625 C 4.78125 -7.085938 4.578125 -7.1875 4.296875 -7.1875 Z M 4.296875 -7.1875 "/></g></g></g><g fill="#ffbd59" fill-opacity="1"><g transform="translate(118.168672, 249.136146)"><g><path d="M 5.59375 -7.46875 C 5.84375 -7.46875 6.039062 -7.390625 6.1875 -7.234375 C 6.34375 -7.085938 6.421875 -6.898438 6.421875 -6.671875 C 6.421875 -6.390625 6.320312 -6.144531 6.125 -5.9375 C 5.925781 -5.738281 5.695312 -5.640625 5.4375 -5.640625 C 5.269531 -5.640625 5.132812 -5.6875 5.03125 -5.78125 C 4.925781 -5.875 4.875 -6 4.875 -6.15625 C 4.875 -6.375 4.925781 -6.554688 5.03125 -6.703125 C 5.144531 -6.859375 5.300781 -6.976562 5.5 -7.0625 C 5.46875 -7.101562 5.414062 -7.125 5.34375 -7.125 C 4.84375 -7.125 4.289062 -6.570312 3.6875 -5.46875 C 3.082031 -4.375 2.519531 -2.925781 2 -1.125 L 1.71875 0 L 0.484375 0 L 2.1875 -6.078125 C 2.25 -6.285156 2.28125 -6.46875 2.28125 -6.625 C 2.28125 -6.84375 2.179688 -6.953125 1.984375 -6.953125 C 1.773438 -6.953125 1.582031 -6.835938 1.40625 -6.609375 C 1.226562 -6.390625 1.050781 -6.019531 0.875 -5.5 L 0.6875 -4.984375 L 0.421875 -4.984375 L 0.78125 -6.015625 C 1.113281 -6.984375 1.679688 -7.46875 2.484375 -7.46875 C 3.023438 -7.46875 3.296875 -7.195312 3.296875 -6.65625 C 3.296875 -6.382812 3.226562 -6 3.09375 -5.5 L 2.640625 -3.703125 C 3.148438 -5.078125 3.628906 -6.046875 4.078125 -6.609375 C 4.523438 -7.179688 5.03125 -7.46875 5.59375 -7.46875 Z M 5.59375 -7.46875 "/></g></g></g><g fill="#ffbd59" fill-opacity="1"><g transform="translate(124.903419, 249.136146)"><g><path d="M 5.890625 -6.546875 C 5.890625 -5.773438 5.457031 -5.101562 4.59375 -4.53125 C 3.738281 -3.957031 2.757812 -3.488281 1.65625 -3.125 C 1.550781 -2.65625 1.5 -2.195312 1.5 -1.75 C 1.5 -0.84375 1.828125 -0.390625 2.484375 -0.390625 C 3.285156 -0.390625 4.007812 -0.863281 4.65625 -1.8125 L 4.890625 -1.703125 C 4.585938 -1.179688 4.175781 -0.734375 3.65625 -0.359375 C 3.144531 0.015625 2.601562 0.203125 2.03125 0.203125 C 1.445312 0.203125 0.988281 0.03125 0.65625 -0.3125 C 0.332031 -0.65625 0.171875 -1.148438 0.171875 -1.796875 C 0.171875 -2.515625 0.378906 -3.320312 0.796875 -4.21875 C 1.222656 -5.125 1.789062 -5.890625 2.5 -6.515625 C 3.21875 -7.148438 4 -7.46875 4.84375 -7.46875 C 5.144531 -7.46875 5.394531 -7.390625 5.59375 -7.234375 C 5.789062 -7.078125 5.890625 -6.847656 5.890625 -6.546875 Z M 4.53125 -7.203125 C 4.226562 -7.203125 3.890625 -7.023438 3.515625 -6.671875 C 3.140625 -6.316406 2.789062 -5.847656 2.46875 -5.265625 C 2.144531 -4.679688 1.898438 -4.054688 1.734375 -3.390625 C 2.628906 -3.703125 3.269531 -4.003906 3.65625 -4.296875 C 4 -4.578125 4.265625 -4.910156 4.453125 -5.296875 C 4.648438 -5.691406 4.75 -6.113281 4.75 -6.5625 C 4.75 -6.820312 4.726562 -6.992188 4.6875 -7.078125 C 4.65625 -7.160156 4.601562 -7.203125 4.53125 -7.203125 Z M 4.53125 -7.203125 "/></g></g></g><g clip-path="url(#3462ef093d)"><path fill="#ffd700" d="M 65.992188 212.820312 L 65.992188 158.5625 L 48.121094 158.5625 L 48.121094 213.058594 C 48.121094 216.992188 45.441406 220.425781 41.625 221.382812 L 41.625 223.003906 L 73.574219 223.003906 L 73.574219 221.382812 L 72.777344 221.210938 C 68.820312 220.363281 65.992188 216.867188 65.992188 212.820312 Z M 65.992188 212.820312 " fill-opacity="1" fill-rule="nonzero"/></g><g clip-path="url(#1e70c028a6)"><path fill="#ffd700" d="M 111.15625 214.601562 L 103.730469 198.097656 C 99.398438 188.347656 85.859375 188.347656 85.859375 188.347656 C 85.859375 188.347656 111.855469 188.347656 111.855469 168.308594 C 111.855469 157.667969 105.523438 149.792969 87.464844 147.726562 L 92.253906 124.359375 C 92.554688 124.445312 92.867188 124.492188 93.195312 124.492188 C 95.070312 124.492188 96.59375 122.96875 96.59375 121.09375 C 96.59375 119.21875 95.070312 117.699219 93.195312 117.699219 C 91.320312 117.699219 89.800781 119.21875 89.800781 121.09375 C 89.800781 122.480469 90.632812 123.675781 91.824219 124.203125 C 89.953125 127.070312 84.5625 134.667969 79.476562 135.359375 C 72.421875 136.316406 68.832031 125.214844 67.585938 120.253906 C 69.214844 120.003906 70.464844 118.597656 70.464844 116.898438 C 70.464844 115.023438 68.941406 113.503906 67.066406 113.503906 C 65.191406 113.503906 63.671875 115.023438 63.671875 116.898438 C 63.671875 118.597656 64.917969 120.003906 66.546875 120.253906 C 65.304688 125.214844 61.710938 136.316406 54.65625 135.359375 C 49.570312 134.667969 44.179688 127.070312 42.308594 124.203125 C 43.5 123.675781 44.332031 122.480469 44.332031 121.09375 C 44.332031 119.21875 42.8125 117.699219 40.9375 117.699219 C 39.0625 117.699219 37.542969 119.21875 37.542969 121.09375 C 37.542969 122.96875 39.0625 124.492188 40.9375 124.492188 C 41.265625 124.492188 41.582031 124.445312 41.878906 124.355469 L 46.644531 147.605469 L 46.6875 147.605469 L 46.6875 149.898438 L 77.191406 149.898438 C 86.941406 149.898438 93.441406 156.394531 93.441406 168.308594 C 93.441406 179.5625 87.644531 185.984375 78.789062 186.660156 L 90.734375 213.800781 C 93.117188 219.214844 97.234375 223.003906 103.730469 223.003906 L 118.894531 223.003906 L 118.894531 221.382812 C 115.453125 220.351562 112.632812 217.875 111.15625 214.601562 Z M 111.15625 214.601562 " fill-opacity="1" fill-rule="nonzero"/></g></svg>